<svg xmlns="http://www.w3.org/2000/svg" version="1.1" xmlns:xlink="http://www.w3.org/1999/xlink" viewBox="0 0 200 200"><rect width="200" height="200" fill="url('#gradient')"></rect><defs><linearGradient id="gradient" gradientTransform="rotate(45 0.5 0.5)"><stop offset="0%" stop-color="#dee90b"></stop><stop offset="100%" stop-color="#d9e241"></stop></linearGradient></defs><g><g fill="#1b3855" transform="matrix(2.3764827230531202,0,0,2.3764827230531202,8.099539553369056,117.60008075914782)" stroke="#0e5278" stroke-width="0.2"><path d="M12.71-7.60L12.71-1.76Q11.92-0.88 10.40-0.34Q8.88 0.20 7.06 0.20L7.06 0.20Q4.27 0.20 2.60-1.51Q0.93-3.22 0.81-6.27L0.81-6.27L0.80-7.50Q0.80-9.60 1.54-11.17Q2.29-12.73 3.67-13.58Q5.05-14.42 6.87-14.42L6.87-14.42Q9.52-14.42 10.99-13.21Q12.46-11.99 12.71-9.58L12.71-9.58L9.40-9.58Q9.23-10.77 8.64-11.28Q8.06-11.79 6.98-11.79L6.98-11.79Q5.69-11.79 4.99-10.69Q4.29-9.60 4.28-7.57L4.28-7.57L4.28-6.71Q4.28-4.58 5.00-3.51Q5.73-2.44 7.29-2.44L7.29-2.44Q8.63-2.44 9.29-3.04L9.29-3.04L9.29-5.24L6.90-5.24L6.90-7.60L12.71-7.60ZM18.03-10.57L18.03 0L14.73 0L14.73-10.57L18.03-10.57ZM14.53-13.29L14.53-13.29Q14.53-13.99 15.04-14.44Q15.55-14.89 16.36-14.89Q17.17-14.89 17.68-14.44Q18.18-13.99 18.18-13.29Q18.18-12.59 17.68-12.14Q17.17-11.69 16.36-11.69Q15.55-11.69 15.04-12.14Q14.53-12.59 14.53-13.29ZM19.65-4.82L19.64-5.38Q19.64-6.96 20.25-8.20Q20.87-9.43 22.02-10.10Q23.17-10.76 24.73-10.76L24.73-10.76Q27.10-10.76 28.47-9.29Q29.83-7.82 29.83-5.29L29.83-5.29L29.83-5.18Q29.83-2.71 28.46-1.25Q27.09 0.20 24.75 0.20L24.75 0.20Q22.49 0.20 21.12-1.16Q19.76-2.51 19.65-4.82L19.65-4.82ZM22.94-5.77L22.93-5.18Q22.93-3.71 23.39-3.03Q23.85-2.34 24.75-2.34L24.75-2.34Q26.50-2.34 26.54-5.05L26.54-5.05L26.54-5.38Q26.54-8.22 24.73-8.22L24.73-8.22Q23.08-8.22 22.94-5.77L22.94-5.77ZM39.23 0L36.72-5.02L34.86-5.02L34.86 0L31.44 0L31.44-14.22L37.03-14.22Q39.56-14.22 40.99-13.10Q42.41-11.97 42.41-9.92L42.41-9.92Q42.41-8.44 41.81-7.46Q41.21-6.48 39.93-5.88L39.93-5.88L42.90-0.15L42.90 0L39.23 0ZM34.86-11.57L34.86-7.67L37.03-7.67Q38.01-7.67 38.50-8.18Q38.99-8.69 38.99-9.61Q38.99-10.53 38.50-11.05Q38.00-11.57 37.03-11.57L37.03-11.57L34.86-11.57ZM53.57 0L50.28 0Q50.11-0.32 49.97-0.95L49.97-0.95Q49.06 0.20 47.43 0.20L47.43 0.20Q45.94 0.20 44.89-0.71Q43.85-1.61 43.85-2.98L43.85-2.98Q43.85-4.70 45.12-5.58Q46.39-6.46 48.81-6.46L48.81-6.46L49.82-6.46L49.82-7.01Q49.82-8.47 48.56-8.47L48.56-8.47Q47.39-8.47 47.39-7.31L47.39-7.31L44.10-7.31Q44.10-8.85 45.41-9.80Q46.71-10.76 48.73-10.76Q50.75-10.76 51.92-9.78Q53.10-8.79 53.13-7.07L53.13-7.07L53.13-2.39Q53.14-0.94 53.57-0.17L53.57-0.17L53.57 0ZM48.22-2.15L48.22-2.15Q48.84-2.15 49.24-2.41Q49.65-2.68 49.82-3.01L49.82-3.01L49.82-4.70L48.87-4.70Q47.15-4.70 47.15-3.15L47.15-3.15Q47.15-2.71 47.45-2.43Q47.75-2.15 48.22-2.15ZM54.88-10.57L57.97-10.57L58.08-9.33Q59.17-10.76 61.09-10.76L61.09-10.76Q62.74-10.76 63.56-9.78Q64.38-8.79 64.40-6.81L64.40-6.81L64.40 0L61.10 0L61.10-6.67Q61.10-7.47 60.78-7.85Q60.46-8.22 59.61-8.22L59.61-8.22Q58.64-8.22 58.17-7.46L58.17-7.46L58.17 0L54.88 0L54.88-10.57ZM72.77 0L70.47-3.94L69.54-3.01L69.54 0L66.25 0L66.25-15.01L69.54-15.01L69.54-7.04L69.87-7.48L72.35-10.57L76.30-10.57L72.60-6.22L76.54 0L72.77 0Z"></path></g></g></svg>