<svg xmlns="http://www.w3.org/2000/svg" version="1.1" xmlns:xlink="http://www.w3.org/1999/xlink" viewBox="0 0 200 200"><rect width="200" height="200" fill="url('#gradient')"></rect><defs><linearGradient id="gradient" gradientTransform="rotate(45 0.5 0.5)"><stop offset="0%" stop-color="#dee90b"></stop><stop offset="100%" stop-color="#d9e241"></stop></linearGradient></defs><g><g fill="#1b3855" transform="matrix(3.4922319060250095,0,0,3.4922319060250095,7.2091314613525554,125.65407563936263)" stroke="#0e5278" stroke-width="0.2"><path d="M12.71-7.60L12.71-1.76Q11.92-0.88 10.40-0.34Q8.88 0.20 7.06 0.20L7.06 0.20Q4.27 0.20 2.60-1.51Q0.93-3.22 0.81-6.27L0.81-6.27L0.80-7.50Q0.80-9.60 1.54-11.17Q2.29-12.73 3.67-13.58Q5.05-14.42 6.87-14.42L6.87-14.42Q9.52-14.42 10.99-13.21Q12.46-11.99 12.71-9.58L12.71-9.58L9.40-9.58Q9.23-10.77 8.64-11.28Q8.06-11.79 6.98-11.79L6.98-11.79Q5.69-11.79 4.99-10.69Q4.29-9.60 4.28-7.57L4.28-7.57L4.28-6.71Q4.28-4.58 5.00-3.51Q5.73-2.44 7.29-2.44L7.29-2.44Q8.63-2.44 9.29-3.04L9.29-3.04L9.29-5.24L6.90-5.24L6.90-7.60L12.71-7.60ZM18.03-10.57L18.03 0L14.73 0L14.73-10.57L18.03-10.57ZM14.53-13.29L14.53-13.29Q14.53-13.99 15.04-14.44Q15.55-14.89 16.36-14.89Q17.17-14.89 17.68-14.44Q18.18-13.99 18.18-13.29Q18.18-12.59 17.68-12.14Q17.17-11.69 16.36-11.69Q15.55-11.69 15.04-12.14Q14.53-12.59 14.53-13.29ZM20.60-13.19L23.89-13.19L23.89-10.57L25.63-10.57L25.63-8.28L23.89-8.28L23.89-3.45Q23.89-2.85 24.10-2.62Q24.32-2.38 24.95-2.38L24.95-2.38Q25.44-2.38 25.77-2.44L25.77-2.44L25.77-0.09Q24.88 0.20 23.92 0.20L23.92 0.20Q22.22 0.20 21.41-0.61Q20.60-1.41 20.60-3.04L20.60-3.04L20.60-8.28L19.25-8.28L19.25-10.57L20.60-10.57L20.60-13.19ZM39.11-7.47L39.11-6.82Q39.11-4.74 38.34-3.13Q37.57-1.53 36.15-0.67Q34.73 0.20 32.91 0.20Q31.09 0.20 29.69-0.64Q28.28-1.47 27.50-3.03Q26.71-4.58 26.67-6.59L26.67-6.59L26.67-7.39Q26.67-9.48 27.44-11.08Q28.20-12.68 29.63-13.54Q31.06-14.41 32.89-14.41L32.89-14.41Q34.70-14.41 36.11-13.55Q37.53-12.70 38.32-11.11Q39.10-9.52 39.11-7.47L39.11-7.47ZM35.63-6.76L35.63-7.41Q35.63-9.53 34.92-10.63Q34.21-11.73 32.89-11.73L32.89-11.73Q30.31-11.73 30.17-7.86L30.17-7.86L30.16-6.82Q30.16-4.73 30.85-3.60Q31.54-2.48 32.91-2.48L32.91-2.48Q34.21-2.48 34.91-3.58Q35.62-4.69 35.63-6.76L35.63-6.76ZM48.67 0L46.16-5.02L44.31-5.02L44.31 0L40.88 0L40.88-14.22L46.47-14.22Q49.00-14.22 50.43-13.10Q51.86-11.97 51.86-9.92L51.86-9.92Q51.86-8.44 51.25-7.46Q50.65-6.48 49.38-5.88L49.38-5.88L52.34-0.15L52.34 0L48.67 0ZM44.31-11.57L44.31-7.67L46.47-7.67Q47.45-7.67 47.94-8.18Q48.44-8.69 48.44-9.61Q48.44-10.53 47.94-11.05Q47.44-11.57 46.47-11.57L46.47-11.57L44.31-11.57Z"></path></g></g></svg>