<svg xmlns="http://www.w3.org/2000/svg" version="1.1" xmlns:xlink="http://www.w3.org/1999/xlink" viewBox="0 0 200 200"><rect width="200" height="200" fill="url('#gradient')"></rect><defs><linearGradient id="gradient" gradientTransform="rotate(45 0.5 0.5)"><stop offset="0%" stop-color="#dee90b"></stop><stop offset="100%" stop-color="#d9e241"></stop></linearGradient></defs><g><g fill="#1b3855" transform="matrix(4.770186335403727,0,0,4.770186335403727,6.172462823598281,135.0406506550238)" stroke="#0e5278" stroke-width="0.2"><path d="M12.71-7.60L12.71-1.76Q11.92-0.88 10.40-0.34Q8.88 0.20 7.06 0.20L7.06 0.20Q4.27 0.20 2.60-1.51Q0.93-3.22 0.81-6.27L0.81-6.27L0.80-7.50Q0.80-9.60 1.54-11.17Q2.29-12.73 3.67-13.58Q5.05-14.42 6.87-14.42L6.87-14.42Q9.52-14.42 10.99-13.21Q12.46-11.99 12.71-9.58L12.71-9.58L9.40-9.58Q9.23-10.77 8.64-11.28Q8.06-11.79 6.98-11.79L6.98-11.79Q5.69-11.79 4.99-10.69Q4.29-9.60 4.28-7.57L4.28-7.57L4.28-6.71Q4.28-4.58 5.00-3.51Q5.73-2.44 7.29-2.44L7.29-2.44Q8.63-2.44 9.29-3.04L9.29-3.04L9.29-5.24L6.90-5.24L6.90-7.60L12.71-7.60ZM18.03-10.57L18.03 0L14.73 0L14.73-10.57L18.03-10.57ZM14.53-13.29L14.53-13.29Q14.53-13.99 15.04-14.44Q15.55-14.89 16.36-14.89Q17.17-14.89 17.68-14.44Q18.18-13.99 18.18-13.29Q18.18-12.59 17.68-12.14Q17.17-11.69 16.36-11.69Q15.55-11.69 15.04-12.14Q14.53-12.59 14.53-13.29ZM20.60-13.19L23.89-13.19L23.89-10.57L25.63-10.57L25.63-8.28L23.89-8.28L23.89-3.45Q23.89-2.85 24.10-2.62Q24.32-2.38 24.95-2.38L24.95-2.38Q25.44-2.38 25.77-2.44L25.77-2.44L25.77-0.09Q24.88 0.20 23.92 0.20L23.92 0.20Q22.22 0.20 21.41-0.61Q20.60-1.41 20.60-3.04L20.60-3.04L20.60-8.28L19.25-8.28L19.25-10.57L20.60-10.57L20.60-13.19ZM34.86 0L32.35-5.02L30.50-5.02L30.50 0L27.07 0L27.07-14.22L32.67-14.22Q35.20-14.22 36.62-13.10Q38.05-11.97 38.05-9.92L38.05-9.92Q38.05-8.44 37.45-7.46Q36.85-6.48 35.57-5.88L35.57-5.88L38.54-0.15L38.54 0L34.86 0ZM30.50-11.57L30.50-7.67L32.67-7.67Q33.64-7.67 34.14-8.18Q34.63-8.69 34.63-9.61Q34.63-10.53 34.13-11.05Q33.63-11.57 32.67-11.57L32.67-11.57L30.50-11.57Z"></path></g></g></svg>