<svg xmlns="http://www.w3.org/2000/svg" version="1.1" xmlns:xlink="http://www.w3.org/1999/xlink" viewBox="0 0 200 200"><rect width="200" height="200" fill="url('#gradient')"></rect><defs><linearGradient id="gradient" gradientTransform="rotate(45 0.5 0.5)"><stop offset="0%" stop-color="#dee90b"></stop><stop offset="100%" stop-color="#d9e241"></stop></linearGradient></defs><g><g fill="#1b3855" transform="matrix(4.9178228388473855,0,0,4.9178228388473855,6.068016747718431,134.9699768516272)" stroke="#0e5278" stroke-width="0.2"><path d="M12.71-7.60L12.71-1.76Q11.92-0.88 10.40-0.34Q8.88 0.20 7.06 0.20L7.06 0.20Q4.27 0.20 2.60-1.51Q0.93-3.22 0.81-6.27L0.81-6.27L0.80-7.50Q0.80-9.60 1.54-11.17Q2.29-12.73 3.67-13.58Q5.05-14.42 6.87-14.42L6.87-14.42Q9.52-14.42 10.99-13.21Q12.46-11.99 12.71-9.58L12.71-9.58L9.40-9.58Q9.23-10.77 8.64-11.28Q8.06-11.79 6.98-11.79L6.98-11.79Q5.69-11.79 4.99-10.69Q4.29-9.60 4.28-7.57L4.28-7.57L4.28-6.71Q4.28-4.58 5.00-3.51Q5.73-2.44 7.29-2.44L7.29-2.44Q8.63-2.44 9.29-3.04L9.29-3.04L9.29-5.24L6.90-5.24L6.90-7.60L12.71-7.60ZM14.15-4.82L14.14-5.38Q14.14-6.96 14.76-8.20Q15.37-9.43 16.52-10.10Q17.68-10.76 19.23-10.76L19.23-10.76Q21.60-10.76 22.97-9.29Q24.34-7.82 24.34-5.29L24.34-5.29L24.34-5.18Q24.34-2.71 22.96-1.25Q21.59 0.20 19.25 0.20L19.25 0.20Q16.99 0.20 15.63-1.16Q14.26-2.51 14.15-4.82L14.15-4.82ZM17.44-5.77L17.43-5.18Q17.43-3.71 17.89-3.03Q18.35-2.34 19.25-2.34L19.25-2.34Q21.01-2.34 21.04-5.05L21.04-5.05L21.04-5.38Q21.04-8.22 19.23-8.22L19.23-8.22Q17.58-8.22 17.44-5.77L17.44-5.77ZM33.73 0L31.22-5.02L29.37-5.02L29.37 0L25.94 0L25.94-14.22L31.53-14.22Q34.06-14.22 35.49-13.10Q36.91-11.97 36.91-9.92L36.91-9.92Q36.91-8.44 36.31-7.46Q35.71-6.48 34.43-5.88L34.43-5.88L37.40-0.15L37.40 0L33.73 0ZM29.37-11.57L29.37-7.67L31.53-7.67Q32.51-7.67 33.00-8.18Q33.50-8.69 33.50-9.61Q33.50-10.53 33.00-11.05Q32.50-11.57 31.53-11.57L31.53-11.57L29.37-11.57Z"></path></g></g></svg>